<svg width="618" height="518" viewBox="0 0 618 518" fill="none" xmlns="http://www.w3.org/2000/svg">
<g clip-path="url(#clip0_147_157)">
<path d="M564.694 461.768L565.622 438.477C575.293 432.705 586.079 429.656 597.045 429.595C581.953 443.372 583.839 469.93 573.607 488.457C570.376 494.208 566.028 499.074 560.884 502.693C555.74 506.313 549.932 508.593 543.892 509.366L531.263 518C529.53 507.213 529.912 496.134 532.382 485.528C534.853 474.921 539.354 465.039 545.575 456.561C549.107 451.844 553.156 447.642 557.629 444.055C560.653 452.961 564.694 461.768 564.694 461.768Z" fill="#F2F2F2"/>
<path d="M131.111 254.707C130.277 253.857 129.62 252.813 129.186 251.648C128.752 250.483 128.552 249.227 128.6 247.966C128.648 246.706 128.943 245.473 129.464 244.354C129.985 243.234 130.72 242.256 131.616 241.488L122.964 212.387L136.745 216.521L142.849 243.523C143.904 245.289 144.343 247.427 144.081 249.531C143.82 251.634 142.876 253.558 141.429 254.936C139.983 256.315 138.133 257.053 136.231 257.011C134.33 256.969 132.508 256.149 131.111 254.707V254.707Z" fill="#A0616A"/>
<path d="M156.089 96.5957C158.375 98.0594 171.905 94.4325 174.547 95.4643C173.089 105.401 181.011 101.672 172.408 114.722C163.805 127.772 146.478 166.899 142.542 181.523C138.606 196.147 142.502 216.755 141.913 223.686C141.628 227.702 141.645 231.737 141.966 235.749C137.318 235.684 132.736 236.761 128.016 236.073C122.982 220.167 119.597 197.527 117.298 185.014C115 172.502 114.916 177.793 115.97 171.537C117.024 165.28 117.279 169.827 116.172 163.841C115.065 157.856 119.543 150.335 123.681 146.047C125.465 140.317 127.771 134.975 129.537 129.305C142.481 116.697 143.332 109.413 156.089 96.5957Z" fill="#6C63FF"/>
<path d="M532.153 501.861H520.718L515.277 452.609H532.156L532.153 501.861Z" fill="#FFB6B6"/>
<path d="M535.07 514.239L498.196 514.237V513.716C498.197 509.466 499.709 505.39 502.4 502.385C505.092 499.38 508.742 497.691 512.548 497.691H512.549L519.285 491.986L531.852 497.692L535.07 497.692L535.07 514.239Z" fill="#2F2E41"/>
<path d="M479.025 501.861H467.59L462.149 452.609H479.027L479.025 501.861Z" fill="#FFB6B6"/>
<path d="M481.942 514.239L445.068 514.237V513.716C445.069 509.466 446.581 505.39 449.272 502.385C451.964 499.38 455.614 497.691 459.421 497.691H459.421L466.157 491.986L478.724 497.692L481.942 497.692L481.942 514.239Z" fill="#2F2E41"/>
<path d="M474.075 232.598L548.458 234.675C562.585 243.242 562.799 261.786 558.171 283.802C558.171 283.802 559.733 296.888 556.608 300.377C553.483 303.867 551.92 303.867 553.483 309.973C555.046 316.08 546.79 326.054 547.792 327.174C548.795 328.294 551.139 334.4 551.139 334.4L543.326 384.126C543.326 384.126 537.857 470.493 536.294 472.237C534.732 473.982 533.169 472.237 534.732 476.599C536.294 480.961 537.857 479.217 536.294 480.961C534.91 482.628 533.606 484.375 532.388 486.196H513.498C513.498 486.196 512.074 477.472 512.074 476.599C512.074 475.727 510.512 470.493 510.512 469.62C510.512 468.748 511.893 467.206 511.893 467.206C512.37 465.432 512.692 463.612 512.856 461.769C512.856 460.024 517.543 392.85 517.543 392.85L508.168 305.612L485.51 391.105C485.51 391.105 485.51 466.131 483.948 467.875C482.385 469.62 482.385 468.748 483.166 472.237C483.948 475.727 487.073 474.855 484.729 477.472C482.385 480.089 481.604 475.727 482.385 480.089L483.166 484.451L459.727 484.825C459.727 484.825 456.602 477.472 458.165 474.855C459.727 472.237 459.634 472.952 457.727 468.669C455.821 464.386 455.04 463.514 455.821 462.641C456.602 461.769 456.602 457.129 456.602 457.129L460.509 373.658C460.509 373.658 461.29 285.547 461.29 282.929C461.349 281.583 461.127 280.239 460.641 279.005V275.452L463.634 262.865L474.075 232.598Z" fill="#2F2E41"/>
<path d="M518.758 59.8984C531.522 59.8984 541.869 48.3448 541.869 34.0928C541.869 19.8407 531.522 8.28711 518.758 8.28711C505.994 8.28711 495.647 19.8407 495.647 34.0928C495.647 48.3448 505.994 59.8984 518.758 59.8984Z" fill="#FFB6B6"/>
<path d="M507.203 76.9542C502.224 80.2593 499.245 86.332 497.535 92.5116C494.37 103.952 492.465 115.781 491.861 127.736L490.056 163.528L467.69 239.739C487.073 258.052 559.933 243.901 559.933 243.901C559.933 243.901 562.17 243.069 559.933 240.571C557.697 238.074 555.519 240.286 557.756 237.789C559.993 235.292 558.451 238.074 557.705 235.577C556.96 233.079 557.705 234.744 558.451 233.912C559.196 233.079 552.679 225.587 552.679 225.587L558.644 181.842L566.099 93.6029C557.152 81.1163 539.16 73.7555 539.16 73.7555L534.511 64.4118L511.267 66.4882L507.203 76.9542Z" fill="#3F3D56"/>
<path d="M504.033 18.948C504.927 18.9558 505.817 19.0862 506.683 19.3363C508.389 19.7945 510.123 20.119 511.87 20.3076C517.22 20.8696 522.248 23.4174 526.149 27.544C530.05 31.6705 532.601 37.1378 533.393 43.0727C534.736 41.7653 537.791 39.3605 540.296 41.5955C540.334 41.631 540.357 41.6493 540.445 41.6026C542.108 40.7216 545.061 29.8764 545.15 20.3274C545.197 15.2591 544.483 8.78718 540.812 6.73767L540.618 6.6297L540.568 6.39498C540.322 5.2549 537.582 3.30881 532.82 1.79412C524.165 -0.958501 511.518 -1.35644 504.253 6.5349C503.704 9.19526 501.66 9.92422 499.853 10.5695C497.852 11.2838 496.125 11.9002 495.852 14.6407C495.625 18.5405 495.641 22.4534 495.902 26.3507C496.58 23.9659 497.91 21.8786 499.707 20.3826C500.984 19.4226 502.493 18.922 504.033 18.948Z" fill="#2F2E41"/>
<path d="M461.016 161.536L498.768 134.539L479.754 106.316L460.978 132.104L402.477 136.111C400.938 134.412 398.99 133.25 396.871 132.767C394.751 132.283 392.551 132.499 390.539 133.388C388.527 134.276 386.79 135.799 385.54 137.771C384.29 139.742 383.58 142.077 383.498 144.492C383.416 146.906 383.965 149.294 385.077 151.366C386.19 153.438 387.818 155.104 389.764 156.16C391.71 157.216 393.889 157.618 396.035 157.315C398.182 157.013 400.203 156.019 401.853 154.456L461.016 161.536Z" fill="#FFB6B6"/>
<path d="M533.807 96.8576C535.998 111.664 494.621 139.938 494.621 139.938C494.62 136.462 469.924 162.698 468.809 159.816C465.641 151.624 463.414 132.222 458.987 129.117C456.455 127.341 474.235 110.657 474.235 110.657C474.235 110.657 483.541 100.188 495.754 86.983C499.145 83.1783 503.343 80.3933 507.957 78.8874C512.571 77.3814 517.451 77.2035 522.144 78.3701C522.144 78.3701 531.616 82.0514 533.807 96.8576Z" fill="#3F3D56"/>
<path d="M491.741 266.858C491.758 282.703 489.381 298.438 484.712 313.4C484.498 314.096 484.275 314.781 484.052 315.477C474.494 344.46 456.716 369.163 433.425 385.824C431.835 386.966 430.227 388.056 428.59 389.115C409.982 401.16 388.917 407.673 367.411 408.031C366.704 408.042 365.997 408.052 365.291 408.052C364.379 408.052 363.478 408.042 362.576 408.021C341.04 407.543 319.975 400.901 301.396 388.731C299.759 387.662 298.148 386.551 296.561 385.399C270.702 366.681 251.848 338.073 243.533 304.939C235.219 271.806 238.017 236.423 251.401 205.429C251.699 204.733 252.006 204.048 252.322 203.353C262.863 179.994 279.007 160.362 298.953 146.645C318.899 132.928 341.865 125.665 365.291 125.665C388.716 125.665 411.682 132.928 431.628 146.645C451.575 160.362 467.718 179.994 478.259 203.353C478.576 204.048 478.882 204.733 479.18 205.429C487.476 224.58 491.771 245.584 491.741 266.858Z" fill="#F2F2F2"/>
<path d="M452.616 313.4V315.477H463.941V313.4H452.616ZM429.966 313.4V315.477H441.291V313.4H429.966ZM407.317 313.4V315.477H418.642V313.4H407.317ZM384.667 313.4V315.477H395.992V313.4H384.667ZM362.018 313.4V315.477H373.343V313.4H362.018ZM339.368 313.4V315.477H350.693V313.4H339.368ZM316.719 313.4V315.477H328.043V313.4H316.719ZM294.078 313.4V315.477H305.394V313.4H294.078ZM271.429 313.4V315.477H282.754V313.4H271.429ZM248.779 313.4V315.477H260.104V313.4H248.779ZM484.712 313.4H475.266V315.477H484.052L484.712 313.4Z" fill="#E6E6E6"/>
<path d="M475.265 298.866V300.942H486.59V298.866H475.265ZM452.616 298.866V300.942H463.941V298.866H452.616ZM429.966 298.866V300.942H441.291V298.866H429.966ZM407.317 298.866V300.942H418.642V298.866H407.317ZM384.667 298.866V300.942H395.992V298.866H384.667ZM362.018 298.866V300.942H373.342V298.866H362.018ZM339.368 298.866V300.942H350.693V298.866H339.368ZM316.719 298.866V300.942H328.043V298.866H316.719ZM294.078 298.866V300.942H305.394V298.866H294.078ZM271.429 298.866V300.942H282.754V298.866H271.429ZM248.779 298.866V300.942H260.104V298.866H248.779Z" fill="#E6E6E6"/>
<path d="M475.265 268.758V270.835H486.59V268.758H475.265ZM452.616 268.758V270.835H463.941V268.758H452.616ZM429.966 268.758V270.835H441.291V268.758H429.966ZM407.317 268.758V270.835H418.642V268.758H407.317ZM384.667 268.758V270.835H395.992V268.758H384.667ZM362.018 268.758V270.835H373.342V268.758H362.018ZM339.368 268.758V270.835H350.693V268.758H339.368ZM316.719 268.758V270.835H328.043V268.758H316.719ZM294.078 268.758V270.835H305.394V268.758H294.078ZM271.429 268.758V270.835H282.754V268.758H271.429ZM248.779 268.758V270.835H260.104V268.758H248.779Z" fill="#E6E6E6"/>
<path d="M475.265 247.994V250.071H486.59V247.994H475.265ZM452.616 247.994V250.071H463.941V247.994H452.616ZM429.966 247.994V250.071H441.291V247.994H429.966ZM407.317 247.994V250.071H418.642V247.994H407.317ZM384.667 247.994V250.071H395.992V247.994H384.667ZM362.018 247.994V250.071H373.342V247.994H362.018ZM339.368 247.994V250.071H350.693V247.994H339.368ZM316.719 247.994V250.071H328.043V247.994H316.719ZM294.078 247.994V250.071H305.394V247.994H294.078ZM271.429 247.994V250.071H282.754V247.994H271.429ZM248.779 247.994V250.071H260.104V247.994H248.779Z" fill="#E6E6E6"/>
<path d="M478.26 203.352H475.266V205.429H479.18C478.882 204.733 478.576 204.048 478.26 203.352ZM452.616 203.352V205.429H463.941V203.352H452.616ZM429.967 203.352V205.429H441.291V203.352H429.967ZM407.317 203.352V205.429H418.642V203.352H407.317ZM384.667 203.352V205.429H395.992V203.352H384.667ZM362.018 203.352V205.429H373.343V203.352H362.018ZM339.368 203.352V205.429H350.693V203.352H339.368ZM316.719 203.352V205.429H328.044V203.352H316.719ZM294.079 203.352V205.429H305.394V203.352H294.079ZM271.429 203.352V205.429H282.754V203.352H271.429ZM252.322 203.352C252.006 204.048 251.699 204.733 251.401 205.429H260.104V203.352H252.322Z" fill="#E6E6E6"/>
<path d="M433.425 210.35V385.824C431.835 386.966 430.227 388.056 428.59 389.115V210.35H433.425Z" fill="#3F3D56"/>
<path d="M367.411 268.488V408.031C366.704 408.041 365.997 408.052 365.291 408.052C364.379 408.052 363.478 408.041 362.576 408.021V268.488H367.411Z" fill="#3F3D56"/>
<path d="M301.396 210.35V388.731C299.759 387.662 298.148 386.551 296.561 385.399V210.35H301.396Z" fill="#3F3D56"/>
<path d="M64.4838 449.183L62.6395 420.541C50.5584 413.798 37.1857 410.449 23.6826 410.786C42.6797 427.182 41.158 459.952 54.3145 482.379C58.4659 489.339 63.9667 495.166 70.4092 499.43C76.8518 503.693 84.0709 506.282 91.5317 507.007L107.342 517.163C109.15 503.816 108.346 490.19 104.984 477.223C101.622 464.257 95.7828 452.258 87.8681 442.054C83.3772 436.379 78.2641 431.358 72.6495 427.109C69.1937 438.188 64.4838 449.183 64.4838 449.183Z" fill="#F2F2F2"/>
<path d="M430.375 224.293C440.132 224.293 448.041 215.461 448.041 204.567C448.041 193.673 440.132 184.842 430.375 184.842C420.619 184.842 412.709 193.673 412.709 204.567C412.709 215.461 420.619 224.293 430.375 224.293Z" fill="#6C63FF"/>
<path d="M439.444 196.346C439.178 196.063 438.825 195.905 438.458 195.905C438.09 195.905 437.737 196.063 437.472 196.346C433.723 199.684 430.356 203.524 427.447 207.78C426.732 206.236 426.018 204.693 425.304 203.15C424.48 201.369 422.072 202.942 422.896 204.722C423.94 206.979 424.985 209.236 426.03 211.493C426.156 211.724 426.333 211.914 426.544 212.046C426.754 212.178 426.992 212.248 427.234 212.248C427.476 212.248 427.714 212.178 427.924 212.046C428.135 211.914 428.312 211.724 428.438 211.493C431.539 206.618 435.244 202.259 439.444 198.548C439.703 198.255 439.849 197.86 439.849 197.447C439.849 197.035 439.703 196.639 439.444 196.346Z" fill="white"/>
<path d="M365.29 282.431C375.047 282.431 382.956 273.6 382.956 262.706C382.956 251.811 375.047 242.98 365.29 242.98C355.534 242.98 347.625 251.811 347.625 262.706C347.625 273.6 355.534 282.431 365.29 282.431Z" fill="#6C63FF"/>
<path d="M374.359 254.485C374.093 254.202 373.74 254.044 373.373 254.044C373.006 254.044 372.653 254.202 372.387 254.485C368.638 257.823 365.272 261.663 362.362 265.918C361.648 264.375 360.934 262.832 360.219 261.288C359.395 259.507 356.987 261.081 357.811 262.86C358.856 265.118 359.9 267.375 360.945 269.632C361.071 269.862 361.248 270.053 361.459 270.185C361.67 270.317 361.907 270.386 362.149 270.386C362.391 270.386 362.629 270.317 362.84 270.185C363.051 270.053 363.227 269.862 363.354 269.632C366.454 264.756 370.16 260.398 374.359 256.687C374.619 256.394 374.764 255.998 374.764 255.586C374.764 255.174 374.619 254.778 374.359 254.485Z" fill="white"/>
<path d="M299.276 228.445C309.032 228.445 316.942 219.614 316.942 208.72C316.942 197.826 309.032 188.994 299.276 188.994C289.519 188.994 281.61 197.826 281.61 208.72C281.61 219.614 289.519 228.445 299.276 228.445Z" fill="#6C63FF"/>
<path d="M308.345 200.499C308.079 200.216 307.726 200.058 307.358 200.058C306.991 200.058 306.638 200.216 306.372 200.499C302.624 203.837 299.257 207.677 296.347 211.932C295.633 210.389 294.919 208.846 294.205 207.303C293.38 205.522 290.972 207.095 291.796 208.875C292.841 211.132 293.886 213.389 294.93 215.646C295.056 215.877 295.233 216.067 295.444 216.199C295.655 216.331 295.893 216.401 296.135 216.401C296.376 216.401 296.614 216.331 296.825 216.199C297.036 216.067 297.213 215.877 297.339 215.646C300.439 210.77 304.145 206.412 308.345 202.701C308.604 202.408 308.75 202.012 308.75 201.6C308.75 201.188 308.604 200.792 308.345 200.499Z" fill="white"/>
<path d="M552.621 194.692L564.251 146.349L533.173 139.78L534.844 172.962L494.01 219.91C491.848 219.811 489.708 220.417 487.849 221.654C485.99 222.89 484.494 224.703 483.542 226.873C482.59 229.043 482.225 231.474 482.489 233.872C482.754 236.27 483.638 238.53 485.033 240.376C486.428 242.223 488.274 243.576 490.346 244.271C492.418 244.966 494.627 244.973 496.702 244.291C498.778 243.609 500.631 242.268 502.035 240.43C503.44 238.592 504.335 236.338 504.612 233.942L552.621 194.692Z" fill="#FFB6B6"/>
<path d="M567.431 92.1454C577.98 101.444 564.44 153.458 564.44 153.458C562.344 150.889 559.908 188.854 557.346 187.561C550.063 183.887 536.716 171.218 531.57 172.251C528.627 172.841 531.71 147.139 531.71 147.139C531.71 147.139 532.277 132.402 533.343 113.456C533.556 108.094 534.979 102.879 537.483 98.2963C539.986 93.7138 543.486 89.9128 547.659 87.2473C547.659 87.2473 556.882 82.8465 567.431 92.1454Z" fill="#3F3D56"/>
<path d="M203.073 200.683L215.859 264.392L133.928 258.702L156.208 196.132L203.073 200.683Z" fill="#A0616A"/>
<path d="M189.431 494.726L198.634 494.725L203.012 455.088H189.429L189.431 494.726Z" fill="#A0616A"/>
<path d="M186.313 489.657L200.862 488.687V495.647L214.694 506.314C215.377 506.84 215.892 507.597 216.162 508.473C216.433 509.35 216.446 510.3 216.199 511.185C215.952 512.07 215.458 512.844 214.789 513.393C214.12 513.942 213.312 514.239 212.481 514.239H195.161L192.175 507.354L191.01 514.239H184.479L186.313 489.657Z" fill="#2F2E41"/>
<path d="M102.445 489.613L111.44 491.791L123.245 454.092L109.97 450.876L102.445 489.613Z" fill="#A0616A"/>
<path d="M100.362 483.922L114.764 486.418L113.443 493.22L124.935 506.918C125.503 507.595 125.862 508.456 125.96 509.377C126.058 510.297 125.89 511.229 125.481 512.035C125.071 512.841 124.442 513.481 123.684 513.859C122.926 514.238 122.08 514.336 121.268 514.139L104.341 510.039L102.731 502.604L100.284 509.056L93.9023 507.511L100.362 483.922Z" fill="#2F2E41"/>
<path d="M217.95 317.667C211.491 357.303 209.877 374.417 209.877 374.417C209.877 374.417 214.721 380.722 211.492 384.328C208.262 387.934 211.492 395.136 211.492 395.136L204.23 482.517L198.384 481.459L184.302 478.931L179.224 478.014L182.453 396.043C182.453 396.043 179.224 388.831 180.838 387.028C182.453 385.225 179.224 374.417 179.224 374.417L175.191 288.839L150.176 382.525C150.176 382.525 152.603 386.131 150.176 388.831C147.758 391.53 142.923 405.048 142.923 405.048L128.048 463.167L126.785 468.103L119.027 466.481L110.583 464.708L109.032 464.386L106.271 463.802L104.494 463.429L103.89 463.308L100.967 462.694L101.851 458.312L102.311 456.005L114.895 393.595L115.184 392.155L115.491 390.634C115.491 390.634 113.876 386.131 116.293 383.422C117.001 382.596 117.517 381.59 117.799 380.492C118.08 379.393 118.118 378.235 117.908 377.116C117.829 377.022 117.757 376.921 117.692 376.814C117.406 376.376 117.209 375.874 117.114 375.343C116.898 374.215 117.087 372.634 118.72 370.811C119.18 370.265 119.566 369.648 119.866 368.977C122.319 363.79 123.555 352.801 123.555 352.801C123.555 352.801 125.738 265.762 132.883 252.466C133.262 251.771 140.846 238.429 141.243 238.157C149.308 232.758 212.14 240.215 212.14 240.215C212.14 240.215 215.945 251.63 216.117 252.819C217.046 259.497 223.426 284.044 217.95 317.667Z" fill="#2F2E41"/>
<path d="M198.859 108.016C198.859 108.016 200.219 100.136 187.154 85.5486C180.238 82.9744 168.255 84.4747 164.1 85.5486C144.889 113.865 148.328 108.869 143.328 124.69C142.031 128.792 141.382 132.734 141.959 135.952C144.264 148.823 148.007 214.893 147.238 218.325C146.47 221.757 141.091 226.048 146.47 226.048C151.849 226.048 221.22 224.692 219.683 222.118C218.146 219.543 198.859 108.016 198.859 108.016Z" fill="#6C63FF"/>
<path d="M281.247 212.712C280.194 213.168 279.063 213.36 277.936 213.275C276.809 213.19 275.712 212.83 274.723 212.22C273.734 211.611 272.877 210.767 272.211 209.747C271.546 208.728 271.089 207.558 270.872 206.32L243.684 202.008L253.138 190.071L277.507 195.996C279.393 195.728 281.303 196.242 282.873 197.44C284.443 198.639 285.565 200.439 286.026 202.499C286.487 204.56 286.256 206.737 285.375 208.62C284.494 210.502 283.025 211.958 281.247 212.712L281.247 212.712Z" fill="#A0616A"/>
<path d="M166.22 102.943C168.412 101.309 170.902 100.542 172.907 98.36C180.225 104.244 180.763 94.6635 187.396 109.076C194.028 123.489 217.684 158.239 227.657 168.687C237.629 179.136 255.889 184.42 261.184 188.097C264.277 190.17 267.521 191.95 270.881 193.417C268.758 198.034 267.581 203.094 264.927 207.507C249.931 205.455 230.269 198.755 219.212 195.479C208.156 192.204 212.361 194.645 207.814 190.804C203.267 186.963 207.026 188.733 201.733 187.174C196.44 185.615 192.405 177.789 190.81 171.742C187.01 167.406 183.753 162.721 179.993 158.43C175.649 139.874 170.816 121.406 166.22 102.943Z" fill="#6C63FF"/>
<path d="M183.388 74.5661C195.677 74.5661 205.64 63.4418 205.64 49.7194C205.64 35.9969 195.677 24.8727 183.388 24.8727C171.098 24.8727 161.135 35.9969 161.135 49.7194C161.135 63.4418 171.098 74.5661 183.388 74.5661Z" fill="#A0616A"/>
<path d="M198.255 95.1379C197.2 93.456 189.314 76.7793 186.97 70.4727C186.729 71.8384 186.577 73.2218 186.515 74.6121L186.492 75.1301L186.031 75.1967C185.338 75.2955 168.972 77.5136 160.454 66.7297C155.408 60.3419 154.264 50.7606 157.048 38.2462C156.542 38.1352 156.057 37.9265 155.614 37.6295C154.878 37.0603 154.261 36.3185 153.808 35.456C153.355 34.5934 153.075 33.6308 152.989 32.6352L152.518 32.7764C137.365 24.5433 150.419 0.458506 164.26 12.433C165.474 12.1301 166.739 12.2113 167.914 12.6674C169.047 13.1822 170.035 14.0297 170.772 15.1201C171.508 16.2106 171.967 17.5033 172.099 18.8613C179.251 14.6613 188.715 15.3448 193.61 18.4959C195.659 19.8155 196.836 21.4774 197.045 23.3314C202.827 23.6919 209.045 29.9803 209.045 38.8897V39.5101H208.489C206.163 39.5654 203.894 40.326 201.926 41.7106C199.957 43.0952 198.363 45.0515 197.314 47.3701C195.892 50.2383 195.189 53.4811 195.277 56.7579C195.365 60.0346 196.243 63.2243 197.817 65.9917C199.53 68.927 200.699 72.2154 201.256 75.6633C201.814 79.1111 201.747 82.6486 201.061 86.0674L198.973 96.283L198.255 95.1379Z" fill="#2F2E41"/>
<path d="M298.727 425.407C304.165 425.407 308.574 420.484 308.574 414.412C308.574 408.339 304.165 403.417 298.727 403.417C293.288 403.417 288.88 408.339 288.88 414.412C288.88 420.484 293.288 425.407 298.727 425.407Z" fill="#E6E6E6"/>
<path d="M364.741 436.827C370.18 436.827 374.588 431.904 374.588 425.832C374.588 419.759 370.18 414.837 364.741 414.837C359.303 414.837 354.895 419.759 354.895 425.832C354.895 431.904 359.303 436.827 364.741 436.827Z" fill="#E6E6E6"/>
<path d="M430.756 423.33C436.194 423.33 440.603 418.408 440.603 412.335C440.603 406.263 436.194 401.34 430.756 401.34C425.318 401.34 420.909 406.263 420.909 412.335C420.909 418.408 425.318 423.33 430.756 423.33Z" fill="#E6E6E6"/>
</g>
<defs>
<clipPath id="clip0_147_157">
<rect width="618" height="518" fill="white"/>
</clipPath>
</defs>
</svg>
